<svg width="137" height="41" viewBox="0 0 137 41" fill="none" xmlns="http://www.w3.org/2000/svg">
<path fill-rule="evenodd" clip-rule="evenodd" d="M4.54424 0.152344C7.06101 0.152344 9.10762 2.20281 9.10762 4.71628C9.10762 7.23615 7.06101 9.2866 4.54424 9.2866C2.03597 9.2866 0 7.23615 0 4.71628C0 2.20281 2.03597 0.152344 4.54424 0.152344Z" fill="#B62936"/>
<path d="M7.77381 13.5005H1.26807V39.8492H7.77381V13.5005Z" fill="white"/>
<path d="M20.787 0.152344H14.2876V39.8515H20.787V0.152344Z" fill="white"/>
<path d="M48.0103 38.5114C47.7529 36.8258 47.6465 34.6708 47.6465 32.4646V22.8119C47.6402 20.1149 47.1594 17.2835 45.5191 15.0495C44.6979 13.9315 43.5916 12.9884 42.1535 12.3355C40.7217 11.6933 38.9708 11.3327 36.8965 11.337C33.4905 11.3412 30.2163 12.2715 27.8974 13.716L27.2889 14.0979L28.9654 19.0651L29.9546 18.3973C31.5736 17.2942 33.9287 16.6306 36.203 16.6306H36.2094C36.2498 16.6306 36.2774 16.6306 36.3115 16.6306C37.4901 16.6306 38.3432 16.8525 38.9687 17.1683C39.9132 17.6484 40.426 18.3567 40.7408 19.1931C41.011 19.8909 41.1174 20.6504 41.1323 21.3119C36.4583 21.3951 32.7225 22.2464 30.0419 23.9256C28.6314 24.8068 27.5379 25.9291 26.7847 27.267C26.0401 28.6048 25.6636 30.1432 25.6636 31.8245C25.6636 33.9112 26.4103 35.9894 27.8995 37.5662C29.3802 39.1302 31.6183 40.1522 34.4266 40.1522C34.4266 40.1522 34.4393 40.1522 34.4521 40.1522C37.5496 40.148 40.1026 38.968 41.8237 37.372L42.1067 39.574H48.1635L48.0103 38.5114ZM41.2557 26.3794V29.9554C41.2557 30.3757 41.1961 30.8217 41.0876 31.1631C40.7706 32.0784 40.143 33.0108 39.2303 33.7021C38.3155 34.387 37.1305 34.8522 35.6158 34.8564C34.6265 34.8543 33.7649 34.5577 33.1799 34.0136C32.5906 33.461 32.1821 32.646 32.1651 31.2975C32.1736 30.269 32.4353 29.5265 32.8863 28.9142C33.5564 28.0009 34.7457 27.3438 36.2711 26.9384C37.7496 26.5415 39.5154 26.3922 41.2557 26.3794Z" fill="white"/>
<path d="M55.6204 23.1036L57.1925 19.534C58.5584 20.3427 60.3795 20.8633 61.9729 20.8633C63.36 20.8633 63.8557 20.5731 63.8557 20.0738C63.8557 18.2474 55.8459 19.7218 55.8459 14.3022C55.8459 11.6031 58.101 9.40332 62.592 9.40332C64.5365 9.40332 66.5448 9.81939 68.0553 10.6686L66.5895 14.219C65.162 13.4914 63.8153 13.1394 62.5537 13.1394C61.1262 13.1394 60.6709 13.5555 60.6709 14.0526C60.6709 15.7958 68.6808 14.3428 68.6808 19.6983C68.6808 22.3547 66.4257 24.5972 61.9346 24.5972C59.5115 24.5972 57.0692 23.9955 55.6204 23.1036Z" fill="white"/>
<path d="M83.6858 24.2659L83.6454 17.6451L80.4989 22.9579H78.3459L75.1994 17.8712V24.2637H70.7488V9.7334H74.7633L79.482 17.4765L84.0773 9.7334H88.0918L88.1343 24.2637H83.6858V24.2659Z" fill="white"/>
<path d="M100.988 21.734H95.4826L94.5103 24.2667H89.5427L95.8761 9.73633H100.678L107.011 24.2667H101.961L100.988 21.734ZM99.6439 18.2049L98.2355 14.552L96.8271 18.2049H99.6439Z" fill="white"/>
<path d="M114.627 20.6109H113.302V24.2637H108.417V9.7334H115.391C119.427 9.7334 121.993 11.85 121.993 15.2127C121.993 17.3101 120.999 18.8869 119.261 19.7787L122.303 24.2616H117.087L114.627 20.6109ZM115.083 13.5121H113.302V16.9153H115.083C116.427 16.9153 117.07 16.271 117.07 15.2127C117.07 14.1565 116.429 13.5121 115.083 13.5121Z" fill="white"/>
<path d="M127.398 13.5343H123.156V9.73633H136.527V13.5343H132.285V24.2667H127.401V13.5343H127.398Z" fill="white"/>
<path d="M57.0972 29.3213H58.229V39.0786H64.2263V40.0601H57.0972V29.3213Z" fill="white"/>
<path d="M73.678 39.0786V40.0601H66.1064V29.3213H73.4483V30.3028H67.2382V34.1221H72.776V35.0886H67.2382V39.0786H73.678Z" fill="white"/>
<path d="M83.0564 37.1903H77.091L75.8061 40.0601H74.6274L79.5227 29.3213H80.6396L85.5349 40.0601H84.3414L83.0564 37.1903ZM82.6437 36.2707L80.0737 30.5012L77.5038 36.2707H82.6437Z" fill="white"/>
<path d="M94.6206 40.0601L92.1741 36.6078C91.8996 36.6376 91.6231 36.6547 91.3167 36.6547H88.4404V40.0601H87.3086V29.3213H91.3167C94.0399 29.3213 95.6908 30.7018 95.6908 33.004C95.6908 34.6917 94.8036 35.8738 93.2442 36.3795L95.8609 40.0622H94.6206V40.0601ZM94.5589 33.0019C94.5589 31.2843 93.4271 30.3006 91.2848 30.3006H88.4404V35.686H91.2848C93.4271 35.6882 94.5589 34.6896 94.5589 33.0019Z" fill="white"/>
<path d="M107.317 29.3213V40.0601H106.383L99.499 31.3461V40.0601H98.3672V29.3213H99.3011L106.2 38.0352V29.3213H107.317Z" fill="white"/>
<path d="M110.806 29.3213H111.938V40.0601H110.806V29.3213Z" fill="white"/>
<path d="M124.373 29.3213V40.0601H123.439L116.555 31.3461V40.0601H115.423V29.3213H116.357L123.256 38.0352V29.3213H124.373Z" fill="white"/>
<path d="M135.404 34.6893H136.489V38.7859C135.479 39.6906 134.043 40.1515 132.558 40.1515C129.298 40.1515 126.914 37.8343 126.914 34.6893C126.914 31.5442 129.301 29.2271 132.573 29.2271C134.194 29.2271 135.602 29.7498 136.551 30.7761L135.847 31.4973C134.945 30.6075 133.872 30.2384 132.619 30.2384C129.973 30.2384 128.03 32.1246 128.03 34.6871C128.03 37.2347 129.973 39.1358 132.605 39.1358C133.63 39.1358 134.579 38.9054 135.404 38.308V34.6893Z" fill="white"/>
</svg>
